# xmcd
#
# Track frame offsets:
# 150
# 19455
# 33992
# 55090
# 81895
# 103520
# 126075
# 140650
# 158332
# 182580
# 198590
# 213277
# 226442
# 235687
# 254452
# 276432
# 290880
# 308080
# 333047
# 337507
#
# Disc length: 4738 seconds
#
#
# Revision: 0
# Processed by: cddbd v1.5.1PL2 Copyright (c) Steve Scherf et al.
# Submitted via: FreeRIP 2.945 
#
DISCID=18128014
DTITLE=BELCHIOR - AS MELHORES
DYEAR=2006
DGENRE=MPB
TTITLE0=BELCHIOR
TTITLE1=BELCHIOR
TTITLE2=BELCHIOR
TTITLE3=BELCHIOR
TTITLE4=BELCHIOR
TTITLE5=BELCHIOR
TTITLE6=BELCHIOR
TTITLE7=BELCHIOR
TTITLE8=BELCHIOR
TTITLE9=BELCHIOR
TTITLE10=BELCHIOR
TTITLE11=BELCHIOR
TTITLE12=BELCHIOR
TTITLE13=BELCHIOR
TTITLE14=BELCHIOR
TTITLE15=BELCHIOR
TTITLE16=BELCHIOR
TTITLE17=BELCHIOR
TTITLE18=BELCHIOR
TTITLE19=BELCHIOR
EXTD=
EXTT0=
EXTT1=
EXTT2=
EXTT3=
EXTT4=
EXTT5=
EXTT6=
EXTT7=
EXTT8=
EXTT9=
EXTT10=
EXTT11=
EXTT12=
EXTT13=
EXTT14=
EXTT15=
EXTT16=
EXTT17=
EXTT18=
EXTT19=
PLAYORDER=
